<?xml version="1.0" standalone="no"?>
<!DOCTYPE svg PUBLIC "-//W3C//DTD SVG 20010904//EN"
 "http://www.w3.org/TR/2001/REC-SVG-20010904/DTD/svg10.dtd">
<svg version="1.0" xmlns="http://www.w3.org/2000/svg"
 width="1024.000000pt" height="1024.000000pt" viewBox="0 0 1024.000000 1024.000000"
 preserveAspectRatio="xMidYMid meet">

<g transform="translate(0.000000,1024.000000) scale(0.100000,-0.100000)"
fill="#000000" stroke="none">
<path d="M2873 8405 c-151 -27 -321 -101 -444 -192 -130 -96 -356 -334 -718
-757 -307 -359 -473 -571 -531 -679 -171 -317 -154 -670 48 -987 115 -181
1282 -1706 1837 -2400 477 -598 709 -866 999 -1155 345 -345 534 -473 804
-547 64 -18 105 -22 252 -22 161 0 183 2 274 27 118 32 192 64 301 128 264
155 710 604 1246 1254 518 627 1909 2430 2086 2703 64 99 116 213 145 320 29
103 31 333 4 432 -37 137 -71 214 -146 325 -154 228 -802 984 -1034 1207 -183
177 -334 267 -551 330 l-80 23 -2210 2 c-1786 1 -2224 -1 -2282 -12z m892
-874 c195 -41 322 -109 464 -245 163 -158 514 -594 734 -913 150 -216 200
-209 383 54 198 286 478 651 648 845 149 169 319 248 601 279 134 14 405 6
491 -15 198 -49 303 -159 334 -349 10 -67 43 -751 60 -1247 5 -168 15 -443 20
-611 9 -261 9 -322 -4 -408 -16 -108 -57 -222 -108 -306 -141 -230 -815 -910
-987 -993 -32 -16 -34 -16 -51 5 -20 25 -19 3 -41 983 -26 1180 -22 1081 -45
1125 -23 45 -83 85 -127 85 -76 0 -134 -54 -182 -170 -44 -106 -112 -225 -231
-406 -170 -258 -345 -454 -464 -519 -47 -26 -66 -30 -130 -30 -106 0 -169 32
-280 144 -190 191 -465 605 -559 843 -52 131 -160 171 -257 96 -58 -46 -57
-34 -70 -663 -7 -319 -15 -764 -19 -990 -7 -476 -9 -511 -35 -525 -57 -30
-492 359 -794 710 -195 228 -268 342 -314 492 -41 130 -46 217 -33 563 6 176
16 444 21 595 40 1138 44 1201 81 1307 23 67 77 150 117 180 68 50 168 87 284
103 102 14 389 4 493 -19z m2205 17 c0 -3 -4 -8 -9 -10 -29 -10 -334 -372
-553 -653 -85 -110 -183 -229 -217 -265 l-61 -65 -63 67 c-35 36 -115 133
-179 215 -230 296 -583 703 -609 703 -5 0 -9 3 -9 8 0 4 382 7 850 7 467 0
850 -3 850 -7z"/>
</g>
</svg>
